<?xml version="1.0" encoding="UTF-8"?>
<!-- Generated by Pixelmator Pro 3.7 -->
<svg width="162" height="180" viewBox="0 0 162 180" xmlns="http://www.w3.org/2000/svg">
    <path id="Path" fill="#000000" stroke="none" d="M 131.369995 86.550003 L 150.029999 49.709991 L 107.309998 51.12999 L 76.029999 7.360001 L 49.910004 53.029999 L 7.860001 54.429993 L 29.700001 90.330002 L 7.129999 131.149994 L 11.580002 130.980011 L 55.279999 129.529999 L 84.449997 173.190002 L 109.699997 127.75 L 149.940002 126.409988 L 155.470001 121.729996 L 131.369995 86.550003 Z M 126.619995 64.529999 L 122.020004 73.039993 L 116.419998 64.869995 L 126.619995 64.529999 Z M 77.18 32.759995 L 89.860001 51.5 L 66.669998 52.099991 L 77.18 32.759995 Z M 41.629997 67.349991 L 37.369999 75.979996 L 32.540001 67.649994 L 41.629997 67.349991 Z M 32.68 116.319992 L 38.799999 105.329987 L 45.629997 115.889999 L 32.68 116.319992 Z M 64.699997 92.009995 C 63.129997 91.830002 62.610001 93.48999 62.610001 93.48999 C 62.610001 93.48999 62.279999 93.209991 62.199997 92.679993 C 61.940002 91.029999 62.330002 87.399994 65.459999 84.470001 C 67.57 82.5 69.779999 81.139999 72.110001 81.080002 C 74.440002 81.020004 76.889999 82.23999 76.889999 82.23999 C 76.889999 82.23999 77.029999 82.429993 77.040001 82.639999 C 77.050003 82.849991 74.790001 86.330002 72.040001 89.209991 C 68.779999 92.62999 66.730003 94.449997 66.419998 94.440002 C 66.110001 94.429993 65.68 94.190002 65.790001 94.020004 C 66.050003 93.62999 65.830002 92.139999 64.699997 92.009995 Z M 63 96.789993 C 63.559998 96.169998 64.57 97.110001 67.410004 96.25 C 69.18 95.720001 70.849998 94.339996 72.720001 92.720001 C 75.790001 90.069992 77.029999 88.37999 78.709999 86.229996 C 79.209999 85.599991 79.269997 85.319992 79.620003 85.279999 C 79.970001 85.23999 80.300003 85.599991 80.510002 86.080002 C 81.339996 88.009995 83.190002 91.639999 85.620003 94.770004 C 89.709999 100.029999 93.699997 98.550003 94.339996 99.75 C 95.220001 101.389999 88.760002 106.23999 79.660004 106.389999 C 75.989998 106.449997 72.040001 105.860001 69.410004 104.199997 C 65.519997 101.729996 62.349998 97.509995 63 96.789993 Z M 93.660004 96.479996 C 93.769997 96.669998 93.260002 97.110001 92.940002 97.119995 C 92.050003 97.149994 89.800003 96.479996 86.550003 90.25 C 85.440002 88.119995 84.510002 86.089996 83.699997 84.779999 C 83.07 83.759995 82.43 83.229996 82.440002 83.139999 C 82.459999 82.919998 82.620003 82.729996 82.620003 82.729996 C 82.620003 82.729996 84.669998 80.979996 88.169998 81.709991 C 91 82.300003 92.610001 82.819992 94.730003 85.069992 C 97.870003 88.419998 97.93 92.229996 97.709999 94.009995 C 97.580002 95.059998 97.410004 95.099991 96.889999 94.830002 C 96.370003 94.559998 96.199997 93.789993 94.510002 93.819992 C 92.769997 93.860001 93.410004 96.039993 93.660004 96.479996 Z M 83.25 146.630005 L 71.68 129.23999 L 93.510002 128.209991 L 83.25 146.630005 Z M 101.120003 114.049988 L 90.93 114.389999 C 92.830002 113.159988 103.940002 105.619995 104.540001 96.73999 C 105.199997 86.889999 101.800003 80.970001 93.779999 77.699997 C 85.760002 74.419998 80.220001 80.270004 80.220001 80.270004 C 80.220001 80.270004 79.910004 80.73999 79.730003 80.73999 C 79.559998 80.75 79.010002 80.190002 79.010002 80.190002 C 79.010002 80.190002 75.379997 73.720001 66.040001 77.979996 C 56.699997 82.25 55.82 89.550003 55.93 95.449997 C 56.040001 101.349991 59.93 107.149994 63.589996 110.329987 C 66.589996 112.929993 69.32 114.559998 70.209999 115.059998 L 62.639999 115.5 L 46.400002 90.169998 L 59.019997 66.419998 L 99.529999 65.419998 L 114.660004 87.520004 L 101.120003 114.049988 Z M 117.550003 113.069992 L 123.779999 101.809998 L 131.509995 112.539993 L 117.550003 113.069992 Z"/>
</svg>
