<?xml version="1.0" encoding="utf-8"?>
<!-- Generator: Adobe Illustrator 27.5.0, SVG Export Plug-In . SVG Version: 6.00 Build 0)  -->
<svg version="1.1" id="Ebene_1" xmlns="http://www.w3.org/2000/svg" xmlns:xlink="http://www.w3.org/1999/xlink" x="0px" y="0px"
	 viewBox="0 0 566.93 283.46" style="enable-background:new 0 0 566.93 283.46;" xml:space="preserve">
<path d="M497.93,157.85c-1.14-1.14-2.26-2.28-3.35-3.42c-1.09-1.14-1.78-2.51-2.07-4.13c-0.28-1.8-0.07-3.51,0.64-5.13
	c0.71-1.61,1.71-3.08,2.99-4.41c1.28-1.33,2.68-2.47,4.21-3.42c1.52-0.95,2.94-1.71,4.28-2.28c-0.48-1.61-1.38-2.8-2.71-3.56
	c-1.33-0.76-2.95-1.23-4.85-1.42c-3.71,1.23-6.3,3.8-7.77,7.69c-1.47,3.89-1.92,8.26-1.36,13.1c0.76,2.56,2,4.63,3.71,6.19
	c1.71,1.57,3.33,3.3,4.85,5.2c-1.33,2.47-3.11,4.56-5.35,6.27c-2.23,1.71-5.01,2.8-8.34,3.27c-0.76-0.28-1.21-0.97-1.36-2.06
	c-0.14-1.09-0.02-2.02,0.36-2.78c-1.23,0.09-1.92,1.34-2,1.78c-0.09,0.54-0.22,1.06-0.24,1.66c-0.09-0.02-0.07-0.01-0.07-0.01
	c-0.16-0.05-0.22-0.11-0.31-0.22c-0.12-0.16-0.33-1.05-0.44-1.75c-0.5-2.59-0.77-4.7-0.48-7.5c0.28-2.8,0.76-5.58,1.43-8.33
	c0.66-2.75,1.31-5.5,1.92-8.26c0.62-2.75,0.88-5.55,0.78-8.4c-0.1-1.13-4.04-2.03-4.41-2.02s-0.67,0.07-1.28,0.12
	s-2.26,1.83-2.39,2.48l-0.68,4c-2.14,1.96-4.23,3.92-6.28,5.88c-2.19,2.09-4.37,3.94-6.56,5.55c-2.19,1.62-4.33,2.56-6.42,2.85
	c0.28-2.56,0.93-4.77,1.92-6.62c1-1.85,1.73-3.92,2.21-6.19c-1.24-1.52-3.09-2.42-5.56-2.71c-1.04,1.42-1.92,3.44-2.64,6.05
	c-0.71,2.61-1,5.18-0.86,7.69c0.14,2.52,0.91,4.61,2.28,6.27c1.38,1.66,3.64,2.21,6.77,1.64c2.09-0.95,3.99-2.16,5.7-3.63
	c1.71-1.47,3.37-2.97,4.99-4.49c1.59-1.49,3.18-2.96,4.77-4.41c-0.05,1.97-0.05,3.91-0.48,6.41c-0.71,4.13-0.56,8.18,0.3,12.45
	c0.04,0.17,0.56,1.09,0.99,1.86c0.43,0.76,0.93,1.45,1.5,2.06c0.57,0.62,1.19,1.02,1.85,1.21c0.49,0.14,0.9,0.09,1.45-0.29
	c0.04,0.21,0.08,0.38,0.12,0.47c0.19,0.66,0.88,2.09,1.54,3.13c0.67,1.04,1.82,2.05,3.15,2.53c1.43,0.38,3.14,0.26,5.13-0.36
	c2-0.62,3.92-1.54,5.78-2.78c1.85-1.23,3.44-2.66,4.78-4.27c1.33-1.62,2.04-3.23,2.14-4.84c0.09-1.71-0.31-3.2-1.21-4.48
	C500.09,160.2,499.07,158.99,497.93,157.85z"/>
<path d="M154.37,112.01l18.66-36.84l-42.72,1.42L99.03,32.82L72.91,78.49l-42.05,1.4l21.84,35.9l-22.57,40.82l4.45-0.17l43.7-1.45
	l29.17,43.66l25.25-45.44l40.24-1.34l5.53-4.68L154.37,112.01z M149.62,89.99l-4.6,8.51l-5.6-8.17L149.62,89.99z M100.18,58.22
	l12.68,18.74l-23.19,0.6L100.18,58.22z M64.63,92.81l-4.26,8.63l-4.83-8.33L64.63,92.81z M55.68,141.78l6.12-10.99l6.83,10.56
	L55.68,141.78z M87.7,117.47c-1.57-0.18-2.09,1.48-2.09,1.48s-0.33-0.28-0.41-0.81c-0.26-1.65,0.13-5.28,3.26-8.21
	c2.11-1.97,4.32-3.33,6.65-3.39c2.33-0.06,4.78,1.16,4.78,1.16s0.14,0.19,0.15,0.4c0.01,0.21-2.25,3.69-5,6.57
	c-3.26,3.42-5.31,5.24-5.62,5.23c-0.31-0.01-0.74-0.25-0.63-0.42C89.05,119.09,88.83,117.6,87.7,117.47z M86,122.25
	c0.56-0.62,1.57,0.32,4.41-0.54c1.77-0.53,3.44-1.91,5.31-3.53c3.07-2.65,4.31-4.34,5.99-6.49c0.5-0.63,0.56-0.91,0.91-0.95
	c0.35-0.04,0.68,0.32,0.89,0.8c0.83,1.93,2.68,5.56,5.11,8.69c4.09,5.26,8.08,3.78,8.72,4.98c0.88,1.64-5.58,6.49-14.68,6.64
	c-3.67,0.06-7.62-0.53-10.25-2.19C88.52,127.19,85.35,122.97,86,122.25z M116.66,121.94c0.11,0.19-0.4,0.63-0.72,0.64
	c-0.89,0.03-3.14-0.64-6.39-6.87c-1.11-2.13-2.04-4.16-2.85-5.47c-0.63-1.02-1.27-1.55-1.26-1.64c0.02-0.22,0.18-0.41,0.18-0.41
	s2.05-1.75,5.55-1.02c2.83,0.59,4.44,1.11,6.56,3.36c3.14,3.35,3.2,7.16,2.98,8.94c-0.13,1.05-0.3,1.09-0.82,0.82
	c-0.52-0.27-0.69-1.04-2.38-1.01C115.77,119.32,116.41,121.5,116.66,121.94z M106.25,172.09l-11.57-17.39l21.83-1.03L106.25,172.09z
	 M124.12,139.51l-10.19,0.34c1.9-1.23,13.01-8.77,13.61-17.65c0.66-9.85-2.74-15.77-10.76-19.04c-8.02-3.28-13.56,2.57-13.56,2.57
	s-0.31,0.47-0.49,0.47c-0.17,0.01-0.72-0.55-0.72-0.55s-3.63-6.47-12.97-2.21c-9.34,4.27-10.22,11.57-10.11,17.47
	c0.11,5.9,4,11.7,7.66,14.88c3,2.6,5.73,4.23,6.62,4.73l-7.57,0.44l-16.24-25.33l12.62-23.75l40.51-1l15.13,22.1L124.12,139.51z
	 M140.55,138.53l6.23-11.26l7.73,10.73L140.55,138.53z"/>
<path d="M383.42,186.83h-4.36v13.86h3.28v-4.62h1.52c3.26,0,5.48-1.5,5.48-4.72C389.34,188.31,387.2,186.83,383.42,186.83z
	 M383.64,193.71h-1.3v-4.54h1.14c1.66,0,2.5,0.7,2.5,2.18C385.98,192.99,385.1,193.71,383.64,193.71z"/>
<path d="M400.16,197.63v-4.16c0-2.44-1.48-3.76-4.64-3.76c-1.18,0-2.76,0.28-4.14,0.8l0.72,2.1c1.06-0.36,2.24-0.56,2.92-0.56
	c1.36,0,2.1,0.52,2.1,1.64v0.38h-1.42c-3.28,0-5.18,1.32-5.18,3.62c0,1.96,1.4,3.34,3.6,3.34c1.32,0,2.66-0.46,3.48-1.44
	c0.5,0.88,1.36,1.28,2.6,1.4l0.66-2.08C400.36,198.73,400.16,198.43,400.16,197.63z M397.12,197.61c-0.4,0.74-1.24,1.16-1.92,1.16
	c-0.9,0-1.42-0.48-1.42-1.3c0-1.04,0.8-1.6,2.56-1.6h0.78V197.61z"/>
<path d="M407.7,192.45l-0.56-2.38h-3.82v2.1h1.4v6.4h-1.4v2.12h6.66v-2.12h-2.1v-3.04c0.5-1.58,1.42-2.76,2.62-2.98v1.96h2
	l0.58-4.44c-0.5-0.2-1.04-0.32-1.76-0.32C409.62,189.75,408.46,190.63,407.7,192.45z"/>
<polygon points="425.3,190.07 422,190.07 418.5,194.87 421.98,200.69 425.58,200.69 421.8,194.77 "/>
<polygon points="415.22,200.69 418.38,200.69 418.38,185.51 415.22,185.85 "/>
<path d="M433.12,194.15c-2.08-0.58-2.5-0.82-2.5-1.36c0-0.56,0.48-0.82,1.52-0.82c1.02,0,2.06,0.36,2.94,0.9l1.26-1.86
	c-1.04-0.76-2.4-1.3-4.3-1.3c-2.98,0-4.6,1.4-4.6,3.3c0,1.88,1.34,2.72,3.28,3.24c2.12,0.58,2.52,0.84,2.52,1.52
	c0,0.68-0.7,1-1.76,1c-1.24,0-2.3-0.48-3.12-1.12l-1.58,1.78c1.08,0.96,2.66,1.6,4.72,1.6c2.7,0,5.02-1.18,5.02-3.52
	C436.52,195.43,435.18,194.73,433.12,194.15z"/>
<path d="M445.88,198.53c-1.06,0-1.52-0.4-1.52-1.46v-4.82h3.1l0.32-2.18h-3.42v-2.68l-3.16,0.38v2.3h-2.22v2.18h2.22v4.82
	c0,2.44,1.32,3.96,4.1,3.96c1.46,0,2.64-0.42,3.48-0.96l-1.04-2.02C447.24,198.33,446.62,198.53,445.88,198.53z"/>
<path d="M455.92,189.71c-3.34,0-5.18,2.54-5.18,5.68c0,3.3,1.88,5.64,5.52,5.64c1.8,0,3.24-0.6,4.24-1.46l-1.26-1.72
	c-0.84,0.54-1.76,0.88-2.72,0.88c-1.36,0-2.34-0.68-2.56-2.42h6.88c0.04-0.32,0.06-0.78,0.06-1.14
	C460.9,191.75,458.96,189.71,455.92,189.71z M453.92,194.39c0.14-1.76,0.88-2.56,2-2.56c1.34,0,1.88,1.02,1.9,2.56H453.92z"/>
<polygon points="469.7,190.07 463.64,190.07 463.64,192.23 466.54,192.23 466.54,198.53 463.54,198.53 463.54,200.69 472.42,200.69 
	472.42,198.53 469.7,198.53 "/>
<path d="M469.66,186.29c0-1-0.76-1.78-1.86-1.78s-1.88,0.78-1.88,1.78c0,1.02,0.78,1.78,1.88,1.78S469.66,187.31,469.66,186.29z"/>
<path d="M481.5,189.71c-1.36,0-2.36,0.52-3.3,1.58l-0.22-1.22h-2.76v10.62h3.16v-7.42c0.6-0.76,1.18-1.22,1.86-1.22
	c0.78,0,1.02,0.44,1.02,1.76v6.88h3.16v-7.8C484.42,190.87,483.32,189.71,481.5,189.71z"/>
<path d="M499.92,189.71c-3.34,0-5.18,2.54-5.18,5.68c0,3.3,1.88,5.64,5.52,5.64c1.8,0,3.24-0.6,4.24-1.46l-1.26-1.72
	c-0.84,0.54-1.76,0.88-2.72,0.88c-1.36,0-2.34-0.68-2.56-2.42h6.88c0.04-0.32,0.06-0.78,0.06-1.14
	C504.9,191.75,502.96,189.71,499.92,189.71z M497.92,194.39c0.14-1.76,0.88-2.56,2-2.56c1.34,0,1.88,1.02,1.9,2.56H497.92z"/>
<path d="M511.82,196.57c-1.24,0-2.22,1.02-2.22,2.22c0,1.22,0.98,2.24,2.22,2.24s2.22-1.02,2.22-2.24
	C514.04,197.59,513.06,196.57,511.82,196.57z"/>
<polygon points="523.88,198.13 521.3,186.83 517.82,186.83 521.8,200.69 525.84,200.69 529.84,186.83 526.48,186.83 "/>
<path d="M535.82,196.57c-1.24,0-2.22,1.02-2.22,2.22c0,1.22,0.98,2.24,2.22,2.24s2.22-1.02,2.22-2.24
	C538.04,197.59,537.06,196.57,535.82,196.57z"/>
<path d="M231.37,175.67c-8.01,0.84-16.03,1.79-23.92,3.34c-15.29,3-29.53,9.3-44.03,14.76c-1.16,0.44-2.36,0.79-3.54,1.19
	c-0.23-0.32-0.47-0.64-0.7-0.97c8.71-8.96,16.93-18.46,26.24-26.75c20.32-18.1,41.23-35.55,61.84-53.33
	c9.32-8.04,18.7-16.03,27.61-24.5c3.27-3.1,5.79-7.28,7.72-11.41c2.17-4.64-0.45-12.14-4.15-14.11c-4.29-2.28-8.9-3.47-13.75-3.08
	c-25.92,2.11-49.8,10.62-72.27,23.39c-3.97,2.26-6.16,8.38-4.75,12.71c0.29,0.88,0.96,1.91,1.74,2.3c2.93,1.49,5.97,2.74,8.97,4.08
	c2.53-4.55,2.24-5.12-5.08-9.26c4.56-2.78,8.74-5.6,13.17-7.97c16.84-9.04,34.94-14.3,53.71-17.52c5.36-0.92,10.69-1.5,15.97,0.17
	c3.88,1.23,4.2,2.17,2.37,5.77c-3.26,6.41-8.25,11.41-13.61,15.97c-16.63,14.14-33.22,28.34-50.19,42.08
	c-17.9,14.49-34.81,30.01-50.88,46.45c-2.8,2.87-5.36,6.04-7.63,9.35c-2.7,3.91-3.94,8.39-3.62,13.21c0.26,3.95,2.23,5.26,5.72,3.81
	c47.36-19.7,77.11-22.51,81.04-22.68C238.6,176.34,237.4,175.04,231.37,175.67z"/>
<path d="M281.83,145.18c1.9-1.04,3.75-2.04,5.56-2.99c0.34-0.18,0.67-0.37,0.99-0.56c-0.97,2.73-1.82,5.45-2.56,8.18
	c-0.76,2.8-1.16,5.46-1.21,7.97c-0.05,2.52,0.74,4.58,2.35,6.19c0.74,0.6,1.24,0.73,1.78,0.84c0.79,0.16,0.79,0.16,1.36,0.15
	c-0.38-3.23-0.19-6.29,0.57-9.18c0.76-2.89,1.62-5.58,2.57-8.04c0.95-2.47,1.76-4.79,2.42-6.98c0.66-2.18,0.76-4.18,0.28-5.98
	c-0.76-0.28-1.62-0.62-2.57-1c-0.95-0.38-1.85-0.33-2.71,0.14c-0.39,1.76-0.95,3.73-1.67,5.9c-3.05,1.02-5.99,2.18-8.81,3.5
	c-3.85,1.8-7.77,3.54-11.76,5.2c-3.99,1.66-8.2,3.04-12.62,4.13c-4.42,1.09-9.34,1.54-14.76,1.35c-0.61-0.03-1.08-0.21-1.48-0.54
	c-0.12-0.1-0.76-0.83-0.66-1.74c0.19-1.23,0.5-2.32,0.93-3.27c0.43-0.95,1.07-1.71,1.92-2.28c0.28,1.62,1,2.61,2.14,2.99
	c2,0.85,4.55,0.23,5.63-0.29c1.84-0.88,4.65-2.77,6.08-3.9c1.29-1.02,1.9-1.58,2.7-2.53c0.93-1.11,1.18-1.59,1.56-2.26
	c0.47-0.85,0.73-1.87,0.78-3.06c0.05-1.19-0.07-2.32-0.36-3.42c-0.28-1.09-0.74-2.02-1.35-2.78c-0.62-0.76-1.4-1.14-2.35-1.14
	c-3.9,0.38-7.51,1.8-10.84,4.27c-2.47,1.8-4.66,3.96-6.56,6.48c-1.9,2.52-2.8,5.62-2.71,9.33c0,3.23,0.88,5.89,2.64,7.97
	c1.76,2.09,4.4,3.13,7.91,3.13c2.47,0.1,4.82-0.24,7.06-1c2.23-0.76,4.35-1.52,6.34-2.28c4.09-1.61,7.77-3.61,11.05-5.98
	C274.78,149.36,278.22,147.18,281.83,145.18z M246.9,139.27c0.95-1,1.95-2.02,3-3.06c1.04-1.04,2.21-1.94,3.49-2.71
	c1.28-0.76,2.87-1.19,4.78-1.28c-1.05,2.94-2.76,5.17-5.13,6.69c-2.38,1.52-5.04,2.8-7.98,3.84
	C245.33,141.43,245.95,140.27,246.9,139.27z"/>
<path d="M298.95,116.42c1.33-0.47,2.16-1.42,2.49-2.85c0.33-1.42,0.59-2.94,0.78-4.56c-1.33-0.47-2.57-0.31-3.71,0.5
	c-1.14,0.81-2.04,1.64-2.71,2.49C295.62,114.66,296.66,116.14,298.95,116.42z"/>
<path d="M387.35,105.6c2-4.65,4.06-9.66,6.2-15.02c2.14-5.36,4.01-10.8,5.63-16.3c0.38-1.42,0.81-2.92,1.28-4.48
	c0.47-1.57,0.83-3.13,1.07-4.7c0.24-1.57,0.21-3.06-0.07-4.49c-0.28-1.42-1.4-3.53-1.85-3.84c-0.95-0.57-2-1.04-3.14-1.42
	c-1.14-0.38-2.52-0.47-4.14-0.29c-0.56,0.13-0.73,0.19-1.13,0.39c-0.96,0.51-0.96,0.51-1.6,0.94c-0.8,0.54-0.9,0.65-1.69,1.52
	c-4.18,5.89-7.84,12.96-10.98,21.22c-3.14,8.26-5.83,16.87-8.06,25.84c-2.23,8.97-4.06,17.92-5.49,26.84
	c-0.34,2.1-0.65,4.15-0.95,6.16c-4.33,2.68-8.65,5.65-12.95,8.94c-5.09,3.89-10.1,7.45-15.04,10.68c0-3.32,0.07-6.69,0.21-10.11
	c0.14-3.42-0.02-6.64-0.5-9.68c0.28-0.57,0.57-1.14,0.86-1.71c0.28-0.57,0.47-1.28,0.57-2.14c-0.19-0.95-0.71-1.64-1.57-2.06
	c-0.86-0.43-1.85-0.45-2.99-0.07c-0.48,0.19-0.86,0.43-1.14,0.71c-0.29,0.28-0.62,0.57-1,0.85c-0.76,1.9-1.76,3.51-2.99,4.84
	c-1.24,1.33-2.52,2.75-3.85,4.27c-1.43,1.62-2.78,3.32-4.06,5.13c-1.28,1.8-2.64,3.54-4.06,5.2c-1.43,1.66-2.97,3.16-4.63,4.48
	c-1.66,1.33-3.49,2.33-5.49,2.99c1.52-8.92,5.56-15.52,12.12-19.79c-0.19,1.14-0.07,1.92,0.36,2.35c0.43,0.43,0.93,0.57,1.5,0.43
	c0.57-0.14,1.12-0.45,1.64-0.93c0.52-0.47,0.78-1.09,0.78-1.85c-0.57-1.42-1.55-2.47-2.92-3.13c-1.38-0.66-2.83-1.23-4.35-1.71
	c-3.99,2.18-7.13,5.08-9.41,8.69c-2.28,3.61-3.66,8.26-4.13,13.95c-0.06,0.66,0.62,2.23,1,3.28c0.38,1.05,0.88,1.94,1.5,2.71
	c0.62,0.76,1.38,1.33,2.28,1.71c0.91,0.38,2.02,0.43,3.35,0.14c1.8-0.38,3.71-1.45,5.7-3.2c2-1.76,3.94-3.77,5.85-6.05
	c1.9-2.28,3.75-4.58,5.56-6.91c1.8-2.32,3.42-4.2,4.85-5.62c0.19,2.85,0.16,5.67-0.07,8.47c-0.24,2.8-0.31,5.72-0.21,8.76
	c-6.18,5.22-12.36,10.35-18.54,15.38c-6.18,5.03-11.74,10.73-16.68,17.09c-2.66,2.94-5.32,5.84-7.98,8.69
	c-2.66,2.85-5.23,5.98-7.7,9.4c-1.04,1.52-2.14,3.2-3.28,5.05c-1.14,1.85-2.19,3.82-3.14,5.91c-0.95,2.09-1.78,4.22-2.5,6.41
	c-0.71,2.18-1.12,4.36-1.21,6.55c-0.29,4.65,0.21,8.85,1.5,12.6c1.28,3.75,3.09,6.86,5.42,9.33c2.33,2.47,5.04,4.27,8.13,5.41
	c3.09,1.14,6.32,1.45,9.7,0.93c3.38-0.52,6.75-1.9,10.12-4.13c3.38-2.23,6.49-5.53,9.34-9.9c2.47-3.8,4.54-7.69,6.2-11.68
	c1.66-3.99,3.3-8.26,4.92-12.81c3.14-9.11,5.51-18.65,7.13-28.62c1.62-9.97,2.76-20.55,3.42-31.75c4.09-3.7,8.32-7.21,12.69-10.54
	c4.37-3.32,8.79-6.64,13.26-9.97c0.38-0.66,0.9-1.28,1.57-1.85c0.07-0.06,0.13-0.13,0.2-0.19c-0.65,4.69-1.19,9.12-1.63,13.29
	c-0.28,2.56-0.57,5.74-0.85,9.54c-0.29,3.8-0.33,7.4-0.14,10.82c0.19,3.42,0.83,6.29,1.92,8.61c1.09,2.33,2.92,3.3,5.49,2.92
	c0.09-1.14-0.12-2.35-0.64-3.63c-0.52-1.28-0.93-3.42-1.21-6.41c-0.28-2.99-0.26-7.17,0.07-12.53c0.33-5.36,1.4-12.65,3.21-21.86
	c2.09-2.66,3.99-5.53,5.7-8.61c1.71-3.08,3.33-6.27,4.85-9.54c1.52-3.28,2.99-6.6,4.42-9.97
	C384.36,112.13,385.83,108.83,387.35,105.6z M328.68,174.02c-0.05,2.99-0.38,6.93-1,11.82c-0.62,4.89-1.55,10.42-2.78,16.59
	c-1.24,6.17-2.92,12.43-5.06,18.79c-2.14,6.36-4.73,12.51-7.77,18.44c-3.04,5.93-4.98,9.74-9.17,14.01
	c-1.27,1.12-0.89,0.81-1.68,1.42c-0.4,0.3-2.22,1.31-2.7,1.59c-2.37,1.33-4.99,2.14-7.84,2.42c-2.85,0.28-5.56,0.14-8.13-0.43
	c-2.57-0.57-4.82-1.62-6.77-3.13c-1.95-1.52-3.16-3.47-3.64-5.84c-0.47-1.8-0.52-3.89-0.14-6.26c0.38-2.37,0.95-4.79,1.71-7.26
	c0.76-2.47,1.64-4.84,2.64-7.12c1-2.28,1.92-4.27,2.78-5.98c2.57-4.84,5.73-9.68,9.48-14.52c3.76-4.84,7.82-9.52,12.19-14.03
	c4.37-4.51,8.89-8.83,13.55-12.96c4.66-4.13,9.13-7.9,13.4-11.32c0.28-0.1,0.47-0.28,0.57-0.57
	C328.61,169.58,328.72,171.03,328.68,174.02z M375.16,118.06c-1.66,3.47-2.97,6.24-3.92,8.33c1.04-9.02,2.8-17.96,5.28-26.84
	c2.47-8.87,5.28-17.3,8.41-25.27c0.57-1.52,1.19-3.08,1.85-4.7c0.66-1.61,1.4-3.13,2.21-4.56c0.81-1.42,1.71-2.73,2.71-3.92
	c1-1.19,1.54-1.77,3.11-2.82c0.4-0.28,0.55-0.35,0.95-0.53c0.19,0.19,0.32,0.36,0.48,0.76c0.17,0.42,0.19,0.49,0.24,1.23
	c0.19,2.28-0.17,5.2-1.07,8.76c-0.91,3.56-2.14,7.47-3.71,11.75c-1.57,4.27-3.33,8.69-5.28,13.24c-1.95,4.56-3.9,8.92-5.85,13.1
	C378.63,110.77,376.82,114.59,375.16,118.06z"/>
<path d="M405.39,160.2c1.57,1.19,3.73,1.5,6.49,0.93c0-0.76,0.07-1.57,0.21-2.42c0.14-0.85,0.12-1.47-0.07-1.85
	c-0.28-0.19-0.55-0.21-0.78-0.07c-0.24,0.14-0.48,0.31-0.71,0.5c-0.24,0.19-0.5,0.38-0.79,0.57c-0.28,0.19-0.57,0.19-0.85,0
	c-0.86-1.99-1.17-4.25-0.93-6.76c0.24-2.51,0.52-5.01,0.86-7.48c0.33-2.47,0.52-4.77,0.57-6.91c0.05-2.14-0.55-3.87-1.78-5.2
	c-1.71-0.95-3.61-1.09-5.7-0.43c-2.28,1.52-4.28,3.47-5.99,5.84c-1.71,2.37-3.38,4.51-4.99,6.41c0.47-1.9,1.21-3.7,2.21-5.41
	s1.97-3.42,2.92-5.13c3.33-5.98,6.54-12.34,9.63-19.08c3.09-6.74,5.85-13.67,8.27-20.79c2.43-7.12,4.49-14.31,6.2-21.57
	c1.71-7.26,2.85-14.36,3.42-21.29c0-0.64,0-0.64-0.43-1.28c-0.76-0.76-1.55-1.52-2.35-2.28c-0.81-0.76-2.02-1.04-3.64-0.85
	c-0.19,0.03-0.28,0.21-0.57,0.57c-3.61,4.46-6.89,10.11-9.84,16.94c-2.95,6.83-5.63,14.17-8.06,22c-2.42,7.83-4.66,15.85-6.7,24.06
	c-2.04,8.21-2.79,14.15-4.59,21.36c-1.04,4.1-1.51,5.76-2.68,10.04c-0.72,2.63-1.28,5.27-2,7.83c-0.71,2.56-1.38,5.15-2,7.76
	c-0.62,2.61-1.12,5.34-1.5,8.19c0.48,0.95,1.07,1.78,1.78,2.49c0.71,0.71,1.74,0.93,3.07,0.64c0.95-0.19,2.09-1.42,3.42-3.7
	c1.33-2.28,2.76-4.91,4.28-7.9c1.52-2.99,3.11-6.03,4.78-9.11c1.66-3.08,3.4-5.48,5.2-7.19c-0.48,2.56-0.74,5.25-0.78,8.04
	c-0.05,2.8,0.28,5.29,1,7.48C402.68,157.33,403.82,159.02,405.39,160.2z M400.33,101.47c1.9-6.36,3.66-12.67,5.28-18.94
	c1.62-6.17,3.02-11.25,4.21-15.23c1.19-3.99,2.26-7.24,3.21-9.75c0.95-2.51,1.88-4.44,2.78-5.77c0.9-1.33,1.88-2.47,2.92-3.42
	c-0.28,5.51-1.21,11.44-2.78,17.8c-1.57,6.36-3.47,12.74-5.7,19.15c-2.23,6.41-4.61,12.65-7.13,18.72
	c-2.52,6.08-4.92,11.58-7.2,16.52C395.97,120.04,398.43,107.83,400.33,101.47z"/>
<path d="M441.82,167.68c0.38,0.09,0.81,0.14,1.28,0.14c-0.19-2.47-0.07-4.91,0.36-7.33c0.43-2.42,0.74-4.72,0.93-6.91
	c0.19-1.99,0.45-3.94,0.78-5.84c0.33-1.9,0.45-3.58,0.36-5.05c-0.1-1.47-0.52-2.68-1.28-3.63c-0.76-0.95-2.09-1.57-3.99-1.85
	c-1.9,1.71-3.66,3.54-5.28,5.48c-1.62,1.95-3.26,3.84-4.92,5.7c-1.66,1.85-3.4,3.66-5.2,5.41c-1.8,1.76-3.85,3.25-6.13,4.48
	c1.71-4.56,3.85-8.69,6.42-12.39c2.57-3.7,5.75-6.79,9.55-9.25c0.57-0.29,1-0.24,1.28,0.14c0.28,0.38,0.66,0.33,1.14-0.14
	c0.19-1.9-0.6-3.3-2.35-4.2c-1.76-0.9-3.59-1.12-5.49-0.64c-1.71,1.71-3.4,3.44-5.06,5.2c-1.66,1.76-3.18,3.66-4.56,5.7
	c-1.38,2.04-2.59,4.27-3.64,6.69c-1.05,2.42-1.76,5.15-2.14,8.19c-0.11,0.72,0.15,1.94,0.53,2.65c0.38,0.71,1.22,1.78,1.83,2.13
	c0.93,0.53,1.02,0.57,1.45,0.76c0.43,0.19,1.46,0.26,2.03,0.19c2.47-0.47,4.04-1.26,5.85-2.59c1.8-1.33,3.44-2.78,4.92-4.34
	c1.47-1.57,2.9-3.18,4.28-4.84c1.38-1.66,2.87-3.06,4.49-4.2c-0.1,1.62-0.26,3.37-0.5,5.27c-0.24,1.9-0.36,3.75-0.36,5.55
	c0,1.8,0.14,3.51,0.43,5.13c0.28,1.61,0.9,2.94,1.85,3.99C440.97,167.48,441.44,167.58,441.82,167.68z"/>
</svg>
