<?xml version="1.0" encoding="UTF-8"?>
<!-- Generated by Pixelmator Pro 3.7 -->
<svg width="404" height="232" viewBox="0 0 404 232" xmlns="http://www.w3.org/2000/svg">
    <path id="Path" fill="#000000" stroke="none" d="M 353.929993 121.390007 C 352.790009 120.250008 351.670013 119.110008 350.579987 117.969986 C 349.48999 116.829987 348.799988 115.459991 348.51001 113.839996 C 348.230011 112.039993 348.440002 110.329987 349.149994 108.709991 C 349.859985 107.099991 350.859985 105.62999 352.140015 104.299988 C 353.420013 102.969986 354.820007 101.829987 356.350006 100.87999 C 357.869995 99.929993 359.290009 99.169998 360.630005 98.599991 C 360.149994 96.98999 359.25 95.799988 357.920013 95.039993 C 356.589996 94.279999 354.970001 93.809998 353.070007 93.619995 C 349.359985 94.849991 346.769989 97.419998 345.299988 101.309998 C 343.829987 105.199997 343.380005 109.569992 343.940002 114.409988 C 344.700012 116.969986 345.940002 119.040001 347.649994 120.599998 C 349.359985 122.170006 350.980011 123.900002 352.5 125.799995 C 351.170013 128.269989 349.390015 130.360016 347.149994 132.070007 C 344.920013 133.779999 342.140015 134.869995 338.809998 135.339996 C 338.049988 135.059998 337.600006 134.369995 337.450012 133.279999 C 337.309998 132.190002 337.429993 131.26001 337.809998 130.5 C 336.579987 130.589996 335.890015 131.839996 335.809998 132.279999 C 335.720001 132.820007 335.589996 133.339996 335.570007 133.940002 C 335.480011 133.920013 335.5 133.929993 335.5 133.929993 C 335.339996 133.880005 335.279999 133.820007 335.190002 133.709991 C 335.070007 133.549988 334.859985 132.660004 334.75 131.959991 C 334.25 129.369995 333.980011 127.260002 334.269989 124.459999 C 334.549988 121.659996 335.029999 118.87999 335.700012 116.12999 C 336.359985 113.37999 337.01001 110.62999 337.619995 107.869995 C 338.23999 105.119995 338.5 102.319992 338.399994 99.469986 C 338.299988 98.339996 334.359985 97.439987 333.98999 97.449997 C 333.619995 97.459991 333.320007 97.519989 332.709991 97.569992 C 332.100006 97.619995 330.450012 99.399994 330.320007 100.049988 L 329.640015 104.049988 C 327.5 106.009995 325.410004 107.969986 323.359985 109.929993 C 321.170013 112.019989 318.98999 113.869995 316.799988 115.479996 C 314.609985 117.099991 312.470001 118.039993 310.380005 118.329987 C 310.660004 115.769989 311.309998 113.559998 312.299988 111.709991 C 313.299988 109.860001 314.029999 107.789993 314.51001 105.519989 C 313.269989 104 311.420013 103.099991 308.950012 102.809998 C 307.910004 104.229996 307.029999 106.25 306.309998 108.860001 C 305.600006 111.469986 305.309998 114.039993 305.450012 116.549988 C 305.589996 119.07 306.359985 121.159996 307.730011 122.82 C 309.109985 124.480003 311.369995 125.030006 314.5 124.459999 C 316.589996 123.510002 318.48999 122.299995 320.200012 120.829994 C 321.910004 119.360008 323.570007 117.860001 325.190002 116.339996 C 326.779999 114.849991 328.369995 113.37999 329.959991 111.929993 C 329.910004 113.899994 329.910004 115.839996 329.480011 118.339996 C 328.769989 122.469994 328.920013 126.519997 329.779999 130.790009 C 329.820007 130.959991 330.339996 131.880005 330.769989 132.649994 C 331.200012 133.410004 331.700012 134.100006 332.269989 134.709991 C 332.839996 135.329987 333.459991 135.730011 334.119995 135.920013 C 334.609985 136.059998 335.019989 136.01001 335.570007 135.630005 C 335.609985 135.839996 335.649994 136.01001 335.690002 136.100006 C 335.880005 136.76001 336.570007 138.190002 337.230011 139.230011 C 337.899994 140.269989 339.049988 141.279999 340.380005 141.76001 C 341.809998 142.140015 343.519989 142.019989 345.51001 141.399994 C 347.51001 140.779999 349.429993 139.860016 351.290009 138.619995 C 353.140015 137.390015 354.730011 135.959991 356.070007 134.350006 C 357.399994 132.730011 358.109985 131.119995 358.209991 129.51001 C 358.299988 127.799995 357.899994 126.310005 357 125.030006 C 356.089996 123.739998 355.070007 122.530006 353.929993 121.390007 Z"/>
    <path id="path1" fill="#000000" stroke="none" d="M 239.420013 150.369995 L 235.059998 150.369995 L 235.059998 164.230011 L 238.339996 164.230011 L 238.339996 159.610016 L 239.859985 159.610016 C 243.119995 159.610016 245.339996 158.110016 245.339996 154.890015 C 245.339996 151.850006 243.200012 150.369995 239.420013 150.369995 Z M 239.640015 157.25 L 238.339996 157.25 L 238.339996 152.709991 L 239.480011 152.709991 C 241.140015 152.709991 241.980011 153.410004 241.980011 154.890015 C 241.980011 156.529999 241.100006 157.25 239.640015 157.25 Z"/>
    <path id="path2" fill="#000000" stroke="none" d="M 256.160004 161.170013 L 256.160004 157.01001 C 256.160004 154.570007 254.679993 153.25 251.519989 153.25 C 250.339996 153.25 248.76001 153.529999 247.380005 154.049988 L 248.100006 156.149994 C 249.160004 155.790009 250.339996 155.589996 251.019989 155.589996 C 252.380005 155.589996 253.119995 156.110016 253.119995 157.230011 L 253.119995 157.610016 L 251.700012 157.610016 C 248.420013 157.610016 246.519989 158.929993 246.519989 161.230011 C 246.519989 163.190002 247.920013 164.570007 250.119995 164.570007 C 251.440002 164.570007 252.779999 164.110016 253.600006 163.130005 C 254.100006 164.01001 254.959991 164.410004 256.200012 164.529999 L 256.859985 162.450012 C 256.359985 162.269989 256.160004 161.970001 256.160004 161.170013 Z M 253.119995 161.149994 C 252.720001 161.890015 251.880005 162.309998 251.200012 162.309998 C 250.299988 162.309998 249.779999 161.829987 249.779999 161.01001 C 249.779999 159.970001 250.579987 159.410004 252.339996 159.410004 L 253.119995 159.410004 L 253.119995 161.149994 Z"/>
    <path id="path3" fill="#000000" stroke="none" d="M 263.700012 155.98999 L 263.140015 153.610016 L 259.320007 153.610016 L 259.320007 155.709991 L 260.720001 155.709991 L 260.720001 162.110016 L 259.320007 162.110016 L 259.320007 164.230011 L 265.980011 164.230011 L 265.980011 162.110016 L 263.880005 162.110016 L 263.880005 159.070007 C 264.380005 157.48999 265.299988 156.309998 266.5 156.089996 L 266.5 158.049988 L 268.5 158.049988 L 269.079987 153.610016 C 268.579987 153.410004 268.040009 153.290009 267.320007 153.290009 C 265.619995 153.290009 264.459991 154.170013 263.700012 155.98999 Z"/>
    <path id="path4" fill="#000000" stroke="none" d="M 281.299988 153.610016 L 278 153.610016 L 274.5 158.410004 L 277.980011 164.230011 L 281.579987 164.230011 L 277.799988 158.309998 Z"/>
    <path id="path5" fill="#000000" stroke="none" d="M 271.220001 164.230011 L 274.380005 164.230011 L 274.380005 149.049988 L 271.220001 149.390015 Z"/>
    <path id="path6" fill="#000000" stroke="none" d="M 289.119995 157.690002 C 287.040009 157.110016 286.619995 156.869995 286.619995 156.329987 C 286.619995 155.769989 287.100006 155.51001 288.140015 155.51001 C 289.160004 155.51001 290.200012 155.869995 291.079987 156.410004 L 292.339996 154.549988 C 291.299988 153.790009 289.940002 153.25 288.040009 153.25 C 285.059998 153.25 283.440002 154.649994 283.440002 156.549988 C 283.440002 158.429993 284.779999 159.269989 286.720001 159.790009 C 288.839996 160.369995 289.23999 160.630005 289.23999 161.309998 C 289.23999 161.98999 288.540009 162.309998 287.480011 162.309998 C 286.23999 162.309998 285.179993 161.829987 284.359985 161.190002 L 282.779999 162.970001 C 283.859985 163.929993 285.440002 164.570007 287.5 164.570007 C 290.200012 164.570007 292.519989 163.390015 292.519989 161.049988 C 292.519989 158.970001 291.179993 158.269989 289.119995 157.690002 Z"/>
    <path id="path7" fill="#000000" stroke="none" d="M 301.880005 162.070007 C 300.820007 162.070007 300.359985 161.670013 300.359985 160.610016 L 300.359985 155.790009 L 303.459991 155.790009 L 303.779999 153.610016 L 300.359985 153.610016 L 300.359985 150.929993 L 297.200012 151.309998 L 297.200012 153.610016 L 294.980011 153.610016 L 294.980011 155.790009 L 297.200012 155.790009 L 297.200012 160.610016 C 297.200012 163.049988 298.519989 164.570007 301.299988 164.570007 C 302.76001 164.570007 303.940002 164.149994 304.779999 163.610016 L 303.73999 161.589996 C 303.23999 161.869995 302.619995 162.070007 301.880005 162.070007 Z"/>
    <path id="path8" fill="#000000" stroke="none" d="M 311.920013 153.25 C 308.579987 153.25 306.73999 155.790009 306.73999 158.929993 C 306.73999 162.230011 308.619995 164.570007 312.26001 164.570007 C 314.059998 164.570007 315.5 163.970001 316.5 163.110016 L 315.23999 161.390015 C 314.399994 161.929993 313.480011 162.269989 312.519989 162.269989 C 311.160004 162.269989 310.179993 161.589996 309.959991 159.850006 L 316.839996 159.850006 C 316.880005 159.529999 316.899994 159.070007 316.899994 158.709991 C 316.899994 155.290009 314.959991 153.25 311.920013 153.25 Z M 309.920013 157.929993 C 310.059998 156.170013 310.799988 155.369995 311.920013 155.369995 C 313.26001 155.369995 313.799988 156.390015 313.820007 157.929993 L 309.920013 157.929993 Z"/>
    <path id="path9" fill="#000000" stroke="none" d="M 325.700012 153.610016 L 319.640015 153.610016 L 319.640015 155.769989 L 322.540009 155.769989 L 322.540009 162.070007 L 319.540009 162.070007 L 319.540009 164.230011 L 328.420013 164.230011 L 328.420013 162.070007 L 325.700012 162.070007 Z"/>
    <path id="path10" fill="#000000" stroke="none" d="M 325.660004 149.829987 C 325.660004 148.829987 324.899994 148.049988 323.799988 148.049988 C 322.700012 148.049988 321.920013 148.829987 321.920013 149.829987 C 321.920013 150.850006 322.700012 151.610016 323.799988 151.610016 C 324.899994 151.610016 325.660004 150.850006 325.660004 149.829987 Z"/>
    <path id="path11" fill="#000000" stroke="none" d="M 337.5 153.25 C 336.140015 153.25 335.140015 153.769989 334.200012 154.829987 L 333.980011 153.610016 L 331.220001 153.610016 L 331.220001 164.230011 L 334.380005 164.230011 L 334.380005 156.809998 C 334.980011 156.049988 335.559998 155.589996 336.23999 155.589996 C 337.019989 155.589996 337.26001 156.029999 337.26001 157.350006 L 337.26001 164.230011 L 340.420013 164.230011 L 340.420013 156.429993 C 340.420013 154.410004 339.320007 153.25 337.5 153.25 Z"/>
    <path id="path12" fill="#000000" stroke="none" d="M 355.920013 153.25 C 352.579987 153.25 350.73999 155.790009 350.73999 158.929993 C 350.73999 162.230011 352.619995 164.570007 356.26001 164.570007 C 358.059998 164.570007 359.5 163.970001 360.5 163.110016 L 359.23999 161.390015 C 358.399994 161.929993 357.480011 162.269989 356.519989 162.269989 C 355.160004 162.269989 354.179993 161.589996 353.959991 159.850006 L 360.839996 159.850006 C 360.880005 159.529999 360.899994 159.070007 360.899994 158.709991 C 360.899994 155.290009 358.959991 153.25 355.920013 153.25 Z M 353.920013 157.929993 C 354.059998 156.170013 354.799988 155.369995 355.920013 155.369995 C 357.26001 155.369995 357.799988 156.390015 357.820007 157.929993 L 353.920013 157.929993 Z"/>
    <path id="path13" fill="#000000" stroke="none" d="M 367.820007 160.110016 C 366.579987 160.110016 365.600006 161.130005 365.600006 162.329987 C 365.600006 163.549988 366.579987 164.570007 367.820007 164.570007 C 369.059998 164.570007 370.039978 163.549988 370.039978 162.329987 C 370.039978 161.130005 369.059998 160.110016 367.820007 160.110016 Z"/>
    <path id="path14" fill="#000000" stroke="none" d="M 379.880005 161.670013 L 377.299988 150.369995 L 373.820007 150.369995 L 377.799988 164.230011 L 381.840027 164.230011 L 385.840027 150.369995 L 382.47998 150.369995 Z"/>
    <path id="path15" fill="#000000" stroke="none" d="M 391.820007 160.110016 C 390.580017 160.110016 389.599976 161.130005 389.599976 162.329987 C 389.599976 163.549988 390.580017 164.570007 391.820007 164.570007 C 393.059998 164.570007 394.039978 163.549988 394.039978 162.329987 C 394.039978 161.130005 393.059998 160.110016 391.820007 160.110016 Z"/>
    <path id="path16" fill="#000000" stroke="none" d="M 87.369995 139.209991 C 79.360001 140.049988 71.339996 141 63.449997 142.549988 C 48.160004 145.549988 33.919998 151.850006 19.419998 157.309998 C 18.259995 157.75 17.059998 158.100006 15.880005 158.5 C 15.649994 158.179993 15.410004 157.860016 15.179993 157.529999 C 23.889999 148.570007 32.110001 139.070007 41.419998 130.779999 C 61.740005 112.679993 82.649994 95.229996 103.259995 77.449997 C 112.579987 69.410004 121.959991 61.419998 130.869995 52.949997 C 134.140015 49.849991 136.660004 45.669998 138.589996 41.539993 C 140.76001 36.899994 138.140015 29.399994 134.440002 27.429993 C 130.149994 25.149994 125.540009 23.959991 120.690002 24.350006 C 94.770004 26.459991 70.889999 34.970001 48.419998 47.73999 C 44.449997 50 42.259995 56.119995 43.669998 60.449997 C 43.960007 61.330002 44.630005 62.360001 45.410004 62.75 C 48.339996 64.23999 51.380005 65.48999 54.380005 66.830002 C 56.910004 62.279999 56.619995 61.709991 49.300003 57.569992 C 53.860001 54.789993 58.039993 51.970001 62.470001 49.599991 C 79.309998 40.559998 97.410004 35.300003 116.179993 32.080002 C 121.540009 31.160004 126.869995 30.580002 132.149994 32.25 C 136.029999 33.479996 136.350006 34.419998 134.519989 38.020004 C 131.26001 44.429993 126.269989 49.429993 120.910004 53.98999 C 104.279999 68.12999 87.690002 82.330002 70.720001 96.069992 C 52.820007 110.559998 35.910004 126.079994 19.839996 142.519989 C 17.039993 145.390015 14.479996 148.559998 12.210007 151.869995 C 9.509995 155.779999 8.270004 160.26001 8.589996 165.079987 C 8.850006 169.029999 10.820007 170.339996 14.309998 168.890015 C 61.669998 149.190002 91.419998 146.380005 95.350006 146.209991 C 94.600006 139.880005 93.399994 138.579987 87.369995 139.209991 Z"/>
    <path id="path17" fill="#000000" stroke="none" d="M 137.829987 108.719986 C 139.730011 107.679993 141.579987 106.679993 143.390015 105.729996 C 143.730011 105.549988 144.059998 105.360001 144.380005 105.169998 C 143.410004 107.899994 142.559998 110.619995 141.820007 113.349991 C 141.059998 116.149994 140.660004 118.809998 140.609985 121.32 C 140.559998 123.840004 141.350006 125.900002 142.959991 127.510002 C 143.700012 128.110016 144.200012 128.23999 144.73999 128.350006 C 145.529999 128.51001 145.529999 128.51001 146.100006 128.5 C 145.720001 125.269997 145.910004 122.209999 146.670013 119.32 C 147.429993 116.429993 148.290009 113.73999 149.23999 111.279999 C 150.190002 108.809998 151 106.48999 151.660004 104.299988 C 152.320007 102.119995 152.420013 100.119995 151.940002 98.319992 C 151.179993 98.039993 150.320007 97.699997 149.369995 97.319992 C 148.420013 96.939987 147.519989 96.98999 146.660004 97.459991 C 146.269989 99.219986 145.709991 101.189987 144.98999 103.360001 C 141.940002 104.37999 139 105.539993 136.179993 106.860001 C 132.329987 108.659988 128.410004 110.399994 124.420013 112.059998 C 120.429993 113.719986 116.220001 115.099991 111.800003 116.189987 C 107.380005 117.279999 102.460007 117.729996 97.039993 117.539993 C 96.429993 117.509995 95.960007 117.329987 95.559998 117 C 95.440002 116.899994 94.800003 116.169998 94.899994 115.259995 C 95.089996 114.029999 95.399994 112.939987 95.830002 111.98999 C 96.259995 111.039993 96.899994 110.279999 97.75 109.709991 C 98.029999 111.329987 98.75 112.319992 99.889999 112.699997 C 101.889999 113.549988 104.440002 112.929993 105.520004 112.409988 C 107.360001 111.529999 110.169998 109.639999 111.600006 108.509995 C 112.890015 107.48999 113.5 106.929993 114.299988 105.979996 C 115.230011 104.869995 115.480011 104.389999 115.859985 103.719986 C 116.329987 102.869995 116.589996 101.849991 116.640015 100.659988 C 116.690002 99.469986 116.570007 98.339996 116.279999 97.23999 C 116 96.149994 115.540009 95.219986 114.929993 94.459991 C 114.309998 93.699997 113.529999 93.319992 112.579987 93.319992 C 108.679993 93.699997 105.070007 95.119995 101.740005 97.589996 C 99.270004 99.389999 97.080002 101.549988 95.179993 104.069992 C 93.279999 106.589996 92.380005 109.689987 92.470001 113.399994 C 92.470001 116.62999 93.350006 119.290001 95.110001 121.370003 C 96.869995 123.459999 99.509995 124.500008 103.020004 124.500008 C 105.490005 124.599998 107.839996 124.260002 110.080002 123.500008 C 112.309998 122.739998 114.429993 121.980003 116.420013 121.219994 C 120.51001 119.610008 124.190002 117.610001 127.470001 115.23999 C 130.779999 112.899994 134.220001 110.719986 137.829987 108.719986 Z M 102.899994 102.809998 C 103.850006 101.809998 104.850006 100.789993 105.899994 99.75 C 106.940002 98.709991 108.110001 97.809998 109.389999 97.039993 C 110.669998 96.279999 112.26001 95.849991 114.170013 95.759995 C 113.119995 98.699997 111.410004 100.929993 109.039993 102.449997 C 106.660004 103.969986 104 105.25 101.059998 106.289993 C 101.330002 104.969986 101.949997 103.809998 102.899994 102.809998 Z"/>
    <path id="path18" fill="#000000" stroke="none" d="M 154.950012 79.959991 C 156.279999 79.48999 157.109985 78.539993 157.440002 77.110001 C 157.769989 75.690002 158.029999 74.169998 158.220001 72.550003 C 156.890015 72.080002 155.649994 72.23999 154.51001 73.050003 C 153.369995 73.860001 152.470001 74.690002 151.799988 75.539993 C 151.619995 78.199997 152.660004 79.679993 154.950012 79.959991 Z"/>
    <path id="path19" fill="#000000" stroke="none" d="M 243.350006 69.139999 C 245.350006 64.48999 247.410004 59.479996 249.549988 54.119995 C 251.690002 48.759995 253.559998 43.319992 255.179993 37.819992 C 255.559998 36.399994 255.98999 34.899994 256.459991 33.339996 C 256.929993 31.770004 257.290009 30.209991 257.529999 28.639999 C 257.769989 27.069992 257.73999 25.580002 257.459991 24.149994 C 257.179993 22.729996 256.059998 20.619995 255.609985 20.309998 C 254.660004 19.740005 253.609985 19.270004 252.470001 18.889999 C 251.329987 18.509995 249.950012 18.419998 248.329987 18.600006 C 247.769989 18.729996 247.600006 18.789993 247.200012 18.990005 C 246.23999 19.5 246.23999 19.5 245.600006 19.929993 C 244.799988 20.470001 244.700012 20.580002 243.910004 21.449997 C 239.730011 27.339996 236.070007 34.410004 232.929993 42.669998 C 229.790009 50.929993 227.100006 59.539993 224.869995 68.509995 C 222.640015 77.479996 220.809998 86.429993 219.380005 95.349991 C 219.040009 97.449997 218.730011 99.5 218.429993 101.509995 C 214.100006 104.189987 209.779999 107.159988 205.480011 110.449997 C 200.390015 114.339996 195.380005 117.899994 190.440002 121.129997 C 190.440002 117.809998 190.51001 114.439987 190.649994 111.019989 C 190.790009 107.599991 190.630005 104.37999 190.149994 101.339996 C 190.429993 100.769989 190.720001 100.199997 191.01001 99.62999 C 191.290009 99.059998 191.480011 98.349991 191.579987 97.48999 C 191.390015 96.539993 190.869995 95.849991 190.01001 95.429993 C 189.149994 95 188.160004 94.979996 187.019989 95.360001 C 186.540009 95.549988 186.160004 95.789993 185.880005 96.069992 C 185.589996 96.349991 185.26001 96.639999 184.880005 96.919998 C 184.119995 98.819992 183.119995 100.429993 181.890015 101.759995 C 180.649994 103.089996 179.369995 104.509995 178.040009 106.029999 C 176.609985 107.649994 175.26001 109.349991 173.980011 111.159988 C 172.700012 112.959991 171.339996 114.699997 169.920013 116.360001 C 168.48999 118.019989 166.950012 119.519997 165.290009 120.840004 C 163.630005 122.170006 161.799988 123.170006 159.799988 123.829994 C 161.320007 114.909988 165.359985 108.309998 171.920013 104.039993 C 171.730011 105.179993 171.850006 105.959991 172.279999 106.389999 C 172.709991 106.819992 173.209991 106.959991 173.779999 106.819992 C 174.350006 106.679993 174.899994 106.369995 175.420013 105.889999 C 175.940002 105.419998 176.200012 104.799988 176.200012 104.039993 C 175.630005 102.619995 174.649994 101.569992 173.279999 100.909988 C 171.899994 100.25 170.450012 99.679993 168.929993 99.199997 C 164.940002 101.37999 161.799988 104.279999 159.519989 107.889999 C 157.23999 111.5 155.859985 116.149994 155.390015 121.840004 C 155.329987 122.500008 156.01001 124.07 156.390015 125.120003 C 156.769989 126.170006 157.269989 127.060005 157.890015 127.829994 C 158.51001 128.589996 159.269989 129.160004 160.170013 129.540009 C 161.079987 129.920013 162.190002 129.970001 163.519989 129.679993 C 165.320007 129.299988 167.230011 128.230011 169.220001 126.480003 C 171.220001 124.719994 173.160004 122.709999 175.070007 120.43 C 176.970001 118.149994 178.820007 115.849991 180.630005 113.519989 C 182.429993 111.199997 184.049988 109.319992 185.480011 107.899994 C 185.670013 110.75 185.640015 113.569992 185.410004 116.369995 C 185.170013 119.170006 185.100006 122.090004 185.200012 125.129997 C 179.019989 130.350006 172.839996 135.480011 166.660004 140.51001 C 160.480011 145.540009 154.920013 151.23999 149.980011 157.600006 C 147.320007 160.540009 144.660004 163.440002 142 166.290009 C 139.339996 169.140015 136.769989 172.269989 134.299988 175.690002 C 133.26001 177.209991 132.160004 178.890015 131.019989 180.73999 C 129.880005 182.589996 128.829987 184.559998 127.880005 186.649994 C 126.929993 188.73999 126.100006 190.869995 125.380005 193.059998 C 124.670013 195.23999 124.26001 197.420013 124.170013 199.610016 C 123.880005 204.26001 124.380005 208.459991 125.670013 212.209991 C 126.950012 215.959991 128.76001 219.070007 131.089996 221.540009 C 133.420013 224.01001 136.130005 225.809998 139.220001 226.950012 C 142.309998 228.089996 145.540009 228.399994 148.920013 227.880005 C 152.299988 227.360016 155.670013 225.980011 159.040009 223.75 C 162.420013 221.52002 165.529999 218.220001 168.380005 213.850006 C 170.850006 210.049988 172.920013 206.160004 174.579987 202.170013 C 176.23999 198.179993 177.880005 193.910004 179.5 189.360016 C 182.640015 180.25 185.01001 170.709991 186.630005 160.73999 C 188.25 150.769989 189.390015 140.190002 190.049988 128.98999 C 194.140015 125.290001 198.369995 121.780006 202.73999 118.449997 C 207.109985 115.12999 211.529999 111.809998 216 108.479996 C 216.380005 107.819992 216.899994 107.199997 217.570007 106.62999 C 217.640015 106.569992 217.700012 106.5 217.769989 106.439987 C 217.119995 111.12999 216.579987 115.559998 216.140015 119.730003 C 215.859985 122.290001 215.570007 125.469994 215.290009 129.269989 C 215 133.070007 214.959991 136.670013 215.149994 140.089996 C 215.339996 143.51001 215.980011 146.380005 217.070007 148.700012 C 218.160004 151.029999 219.98999 152 222.559998 151.619995 C 222.649994 150.480011 222.440002 149.269989 221.920013 147.98999 C 221.399994 146.709991 220.98999 144.570007 220.709991 141.579987 C 220.429993 138.589996 220.450012 134.410004 220.779999 129.049988 C 221.109985 123.689995 222.179993 116.399994 223.98999 107.189987 C 226.079987 104.529999 227.980011 101.659988 229.690002 98.579987 C 231.399994 95.5 233.019989 92.309998 234.540009 89.039993 C 236.059998 85.759995 237.529999 82.440002 238.959991 79.069992 C 240.359985 75.669998 241.829987 72.369995 243.350006 69.139999 Z M 184.679993 137.559998 C 184.630005 140.549988 184.299988 144.48999 183.679993 149.380005 C 183.059998 154.269989 182.130005 159.799988 180.899994 165.970001 C 179.660004 172.140015 177.980011 178.399994 175.839996 184.76001 C 173.700012 191.119995 171.109985 197.269989 168.070007 203.200012 C 165.029999 209.130005 163.089996 212.940002 158.899994 217.209991 C 157.630005 218.329987 158.01001 218.019989 157.220001 218.630005 C 156.820007 218.929993 155 219.940002 154.519989 220.220001 C 152.149994 221.550018 149.529999 222.360016 146.679993 222.640015 C 143.829987 222.920013 141.119995 222.779999 138.549988 222.210022 C 135.980011 221.640015 133.730011 220.589996 131.779999 219.079987 C 129.829987 217.559998 128.619995 215.610016 128.140015 213.23999 C 127.670013 211.440002 127.619995 209.350006 128 206.980011 C 128.380005 204.610016 128.950012 202.190002 129.709991 199.720001 C 130.470001 197.25 131.350006 194.880005 132.350006 192.600006 C 133.350006 190.320007 134.269989 188.329987 135.130005 186.619995 C 137.700012 181.779999 140.859985 176.940002 144.609985 172.100006 C 148.369995 167.26001 152.429993 162.579987 156.799988 158.070007 C 161.170013 153.559998 165.690002 149.23999 170.350006 145.110016 C 175.01001 140.980011 179.480011 137.209991 183.75 133.790009 C 184.029999 133.690002 184.220001 133.51001 184.320007 133.220001 C 184.609985 133.119995 184.720001 134.570007 184.679993 137.559998 Z M 231.160004 81.599991 C 229.5 85.069992 228.190002 87.839996 227.23999 89.929993 C 228.279999 80.910004 230.040009 71.970001 232.519989 63.089996 C 234.98999 54.220001 237.799988 45.789993 240.929993 37.819992 C 241.5 36.300003 242.119995 34.73999 242.779999 33.119995 C 243.440002 31.509995 244.179993 29.98999 244.98999 28.559998 C 245.799988 27.139999 246.700012 25.830002 247.700012 24.639999 C 248.700012 23.449997 249.23999 22.869995 250.809998 21.819992 C 251.209991 21.539993 251.359985 21.470001 251.76001 21.289993 C 251.950012 21.479996 252.079987 21.649994 252.23999 22.050003 C 252.410004 22.470001 252.429993 22.539993 252.480011 23.279999 C 252.670013 25.559998 252.309998 28.479996 251.410004 32.039993 C 250.5 35.599991 249.269989 39.509995 247.700012 43.789993 C 246.130005 48.059998 244.369995 52.479996 242.420013 57.029999 C 240.470001 61.589996 238.519989 65.949997 236.570007 70.12999 C 234.630005 74.309998 232.820007 78.12999 231.160004 81.599991 Z"/>
    <path id="path20" fill="#000000" stroke="none" d="M 261.390015 123.739998 C 262.959991 124.93 265.119995 125.239998 267.880005 124.670006 C 267.880005 123.909996 267.950012 123.099998 268.089996 122.250008 C 268.230011 121.400002 268.209991 120.780006 268.019989 120.400002 C 267.73999 120.209999 267.470001 120.189995 267.23999 120.329994 C 267 120.469994 266.76001 120.640007 266.529999 120.829994 C 266.290009 121.019997 266.029999 121.209999 265.73999 121.400002 C 265.459991 121.590004 265.170013 121.590004 264.890015 121.400002 C 264.029999 119.409996 263.720001 117.149994 263.959991 114.639999 C 264.200012 112.12999 264.480011 109.62999 264.820007 107.159988 C 265.149994 104.689987 265.339996 102.389999 265.390015 100.25 C 265.440002 98.110001 264.839996 96.37999 263.609985 95.049988 C 261.899994 94.099991 260 93.959991 257.910004 94.619995 C 255.630005 96.139999 253.630005 98.089996 251.920013 100.459991 C 250.209991 102.829987 248.540009 104.969986 246.929993 106.869995 C 247.399994 104.969986 248.140015 103.169998 249.140015 101.459991 C 250.140015 99.75 251.109985 98.039993 252.059998 96.329987 C 255.390015 90.349991 258.600006 83.98999 261.690002 77.25 C 264.779999 70.509995 267.540009 63.580002 269.959991 56.459991 C 272.390015 49.339996 274.450012 42.149994 276.160004 34.889999 C 277.869995 27.62999 279.01001 20.529999 279.579987 13.600006 C 279.579987 12.959991 279.579987 12.959991 279.149994 12.319992 C 278.390015 11.559998 277.600006 10.800003 276.799988 10.039993 C 275.98999 9.279999 274.779999 9 273.160004 9.190002 C 272.970001 9.220001 272.880005 9.399994 272.589996 9.759995 C 268.980011 14.220001 265.700012 19.869995 262.75 26.699997 C 259.799988 33.529999 257.119995 40.869995 254.690002 48.699997 C 252.269989 56.529999 250.029999 64.550003 247.98999 72.759995 C 245.950012 80.970001 245.200012 86.910004 243.399994 94.119995 C 242.359985 98.219986 241.890015 99.87999 240.720001 104.159988 C 240 106.789993 239.440002 109.429993 238.720001 111.98999 C 238.01001 114.549988 237.339996 117.139999 236.720001 119.750008 C 236.100006 122.360008 235.600006 125.090004 235.220001 127.939995 C 235.700012 128.890015 236.290009 129.720001 237 130.429993 C 237.709991 131.140015 238.73999 131.360016 240.070007 131.070007 C 241.019989 130.880005 242.160004 129.649994 243.48999 127.370003 C 244.820007 125.090004 246.25 122.459999 247.769989 119.469994 C 249.290009 116.479996 250.880005 113.439987 252.549988 110.360001 C 254.209991 107.279999 255.950012 104.87999 257.75 103.169998 C 257.269989 105.729996 257.01001 108.419998 256.970001 111.209991 C 256.920013 114.009995 257.25 116.5 257.970001 118.689987 C 258.679993 120.870003 259.820007 122.560005 261.390015 123.739998 Z M 256.329987 65.009995 C 258.230011 58.649994 259.98999 52.339996 261.609985 46.069992 C 263.230011 39.899994 264.630005 34.819992 265.820007 30.839996 C 267.01001 26.850006 268.079987 23.600006 269.029999 21.089996 C 269.980011 18.580002 270.910004 16.649994 271.809998 15.319992 C 272.709991 13.990005 273.690002 12.850006 274.730011 11.899994 C 274.450012 17.410004 273.519989 23.339996 271.950012 29.699997 C 270.380005 36.059998 268.480011 42.440002 266.25 48.849991 C 264.019989 55.259995 261.640015 61.5 259.119995 67.569992 C 256.600006 73.649994 254.200012 79.149994 251.920013 84.089996 C 251.970001 83.580002 254.429993 71.369995 256.329987 65.009995 Z"/>
    <path id="path21" fill="#000000" stroke="none" d="M 297.820007 131.220001 C 298.200012 131.309998 298.630005 131.360016 299.100006 131.360016 C 298.910004 128.890015 299.029999 126.450005 299.459991 124.030006 C 299.890015 121.610008 300.200012 119.310005 300.390015 117.119995 C 300.579987 115.12999 300.839996 113.179993 301.170013 111.279999 C 301.5 109.37999 301.619995 107.699997 301.529999 106.229996 C 301.429993 104.759995 301.01001 103.549988 300.25 102.599991 C 299.48999 101.649994 298.160004 101.029999 296.26001 100.75 C 294.359985 102.459991 292.600006 104.289993 290.980011 106.229996 C 289.359985 108.179993 287.720001 110.069992 286.059998 111.929993 C 284.399994 113.779999 282.660004 115.589996 280.859985 117.339996 C 279.059998 119.099998 277.01001 120.590004 274.730011 121.82 C 276.440002 117.259995 278.579987 113.12999 281.149994 109.429993 C 283.720001 105.729996 286.899994 102.639999 290.700012 100.179993 C 291.269989 99.889999 291.700012 99.939987 291.980011 100.319992 C 292.26001 100.699997 292.640015 100.649994 293.119995 100.179993 C 293.309998 98.279999 292.519989 96.87999 290.769989 95.979996 C 289.01001 95.079987 287.179993 94.860001 285.279999 95.339996 C 283.570007 97.049988 281.880005 98.779999 280.220001 100.539993 C 278.559998 102.299988 277.040009 104.199997 275.660004 106.23999 C 274.279999 108.279999 273.070007 110.509995 272.019989 112.929993 C 270.970001 115.349991 270.26001 118.079987 269.880005 121.120003 C 269.769989 121.840004 270.029999 123.060005 270.410004 123.769997 C 270.790009 124.480003 271.630005 125.549995 272.23999 125.900002 C 273.170013 126.43 273.26001 126.469994 273.690002 126.659996 C 274.119995 126.849998 275.149994 126.920006 275.720001 126.849998 C 278.190002 126.379997 279.76001 125.590004 281.570007 124.260002 C 283.369995 122.93 285.01001 121.480003 286.48999 119.920006 C 287.959991 118.349991 289.390015 116.73999 290.769989 115.079987 C 292.149994 113.419998 293.640015 112.019989 295.26001 110.87999 C 295.160004 112.5 295 114.25 294.76001 116.149994 C 294.519989 118.049988 294.399994 119.900002 294.399994 121.700005 C 294.399994 123.500008 294.540009 125.209999 294.829987 126.829994 C 295.109985 128.440002 295.730011 129.769989 296.679993 130.820007 C 296.970001 131.019989 297.440002 131.119995 297.820007 131.220001 Z"/>
</svg>
